<svg width="26" height="26" viewBox="0 0 26 26" fill="none" xmlns="http://www.w3.org/2000/svg">
<path d="M13.7061 5.99805H12.2969C12.168 5.99805 12.0625 6.10352 12.0625 6.23243V14.2979C12.0625 14.374 12.0977 14.4443 12.1592 14.4883L17.002 18.0244C17.1074 18.1006 17.2539 18.0801 17.3301 17.9746L18.168 16.832C18.2471 16.7236 18.2236 16.5772 18.1182 16.5039L13.9404 13.4834V6.23243C13.9404 6.10352 13.835 5.99805 13.7061 5.99805ZM20.1455 8.20118L24.7393 9.32325C24.8857 9.3584 25.0293 9.24708 25.0293 9.09766L25.0527 4.36622C25.0527 4.16993 24.8272 4.0586 24.6748 4.18165L20.0576 7.78809C20.0227 7.81509 19.9962 7.85138 19.981 7.89281C19.9658 7.93423 19.9626 7.97909 19.9718 8.02225C19.981 8.0654 20.0021 8.10508 20.0329 8.13674C20.0636 8.16839 20.1026 8.19073 20.1455 8.20118ZM25.0586 17.0225L23.3975 16.4512C23.3396 16.4313 23.2762 16.4349 23.2209 16.4612C23.1656 16.4875 23.1227 16.5344 23.1016 16.5918C23.0459 16.7412 22.9873 16.8877 22.9258 17.0342C22.4043 18.2676 21.6572 19.3779 20.7022 20.3301C19.7577 21.2775 18.6384 22.0327 17.4063 22.5537C16.1299 23.0934 14.7579 23.3704 13.3721 23.3682C11.9717 23.3682 10.6152 23.0957 9.33789 22.5537C8.10578 22.0327 6.98647 21.2775 6.042 20.3301C5.08985 19.3779 4.34278 18.2676 3.81836 17.0342C3.28169 15.7571 3.00673 14.3853 3.00977 13C3.00977 11.5996 3.28223 10.2402 3.82422 8.9629C4.34571 7.7295 5.09278 6.61915 6.04785 5.667C6.99233 4.71959 8.11164 3.96443 9.34375 3.44336C10.6152 2.90137 11.9746 2.62891 13.375 2.62891C14.7754 2.62891 16.1318 2.90137 17.4092 3.44336C18.6413 3.96443 19.7606 4.71959 20.7051 5.667C21.0039 5.96876 21.2852 6.28223 21.543 6.61329L23.2949 5.24219C20.9893 2.29493 17.4004 0.399417 13.3691 0.402347C6.34961 0.405277 0.712893 6.10645 0.783205 13.1289C0.853518 20.0283 6.46387 25.5977 13.375 25.5977C18.8096 25.5977 23.4385 22.1524 25.2022 17.3272C25.2461 17.2041 25.1816 17.0664 25.0586 17.0225Z" fill="#373737" fill-opacity="0.8"/>
</svg>
